<svg width="32" height="32" viewBox="0 0 32 32" fill="none" xmlns="http://www.w3.org/2000/svg">
				<path fill-rule="evenodd" clip-rule="evenodd" d="M6.4196 6.72884H4.7963C4.08037 6.72884 3.5 6.14847 3.5 5.43254C3.5 5.34305 3.57255 5.27051 3.66204 5.27051H6.4196C7.48242 5.27051 8.41819 5.97069 8.71808 6.99032L12.181 18.7642C12.2983 19.1632 12.6645 19.4372 13.0804 19.4372H22.2037C22.9196 19.4372 23.5 20.0175 23.5 20.7335C23.5 20.823 23.4275 20.8955 23.338 20.8955H13.0804C12.0176 20.8955 11.0818 20.1953 10.7819 19.1757L7.31901 7.40181C7.20166 7.00283 6.83549 6.72884 6.4196 6.72884Z" fill="#2D2D2D"></path>
				<circle cx="13.5" cy="24.333" r="1.77083" stroke="#2D2D2D" stroke-width="1.45833"></circle>
				<circle cx="21" cy="24.333" r="1.77083" stroke="#2D2D2D" stroke-width="1.45833"></circle>
				<path d="M8.91675 8.9165H25.2216C25.8014 8.9165 26.204 9.49388 26.0036 10.0379L23.701 16.2879C23.5803 16.6155 23.2681 16.8332 22.919 16.8332H11.0001" stroke="#2D2D2D" stroke-width="1.45833"></path>
			  </svg>