<svg width="78" height="58" viewBox="0 8 78 58" fill="none" xmlns="http://www.w3.org/2000/svg">
				<ellipse cx="41.0249" cy="62.8467" rx="31.7975" ry="2.9927" fill="#F1F1F1"></ellipse>
				<path fill-rule="evenodd" clip-rule="evenodd" d="M52.4062 42.5377C53.6734 42.0736 54.6207 41.7937 56.487 41.7937C58.3533 41.7937 59.3005 42.0736 60.5678 42.5377L61.458 41.7954C62.8276 37.1051 63.8367 30.3996 64.0399 28.9971H62.2194C61.8918 29.8687 60.357 33.2973 56.487 33.2973C52.6174 33.2973 51.0823 29.8687 50.7546 28.9971H48.9342C49.1373 30.3997 50.1466 37.1058 51.516 41.7954L52.4062 42.5377Z" fill="#DB0007"></path>
				<mask id="mask0" mask-type="alpha" maskUnits="userSpaceOnUse" x="48" y="28" width="17" height="15">
				  <path fill-rule="evenodd" clip-rule="evenodd" d="M52.4062 42.5377C53.6734 42.0736 54.6207 41.7937 56.487 41.7937C58.3533 41.7937 59.3005 42.0736 60.5678 42.5377L61.458 41.7954C62.8276 37.1051 63.8367 30.3996 64.0399 28.9971H62.2194C61.8918 29.8687 60.357 33.2973 56.487 33.2973C52.6174 33.2973 51.0823 29.8687 50.7546 28.9971H48.9342C49.1373 30.3997 50.1466 37.1058 51.516 41.7954L52.4062 42.5377Z" fill="white"></path>
				</mask>
				<g mask="url(#mask0)">
				  <path d="M49.853 41.8801C50.0018 41.8801 50.1364 41.792 50.1959 41.6556L52.0127 37.4905C52.0836 37.4865 52.1537 37.4729 52.2211 37.4501C52.6355 37.3102 52.858 36.8608 52.7181 36.4464L50.6014 30.1773C50.4927 29.8553 50.1908 29.6386 49.851 29.6386H38.5312C38.1914 29.6386 37.8895 29.8553 37.7808 30.1773L38.1352 30.2969L37.7808 30.1773L35.6641 36.4464C35.6366 36.528 35.6225 36.6136 35.6225 36.6997C35.6225 37.122 35.9529 37.467 36.3692 37.4905L38.1863 41.6556C38.2458 41.792 38.3804 41.8801 38.5292 41.8801H49.853Z" stroke="white" stroke-width="0.748175" stroke-linejoin="round"></path>
				</g>
				<path fill-rule="evenodd" clip-rule="evenodd" d="M49.4344 28.4277H50.8965C50.9951 28.4277 51.0829 28.4912 51.1142 28.5853C51.2557 29.0093 52.6078 32.7279 56.4671 32.7279C60.3266 32.7279 61.6786 29.0093 61.8201 28.5853C61.8513 28.4912 61.9391 28.4277 62.0377 28.4277H63.5791C64.0282 27.0351 64.4467 25.7996 64.7968 24.3446C64.2561 24.18 63.353 24.3266 63.3008 24.5334C63.2116 24.8873 63.1565 25.07 63.0608 25.4212C62.8158 25.1473 62.3678 25.0069 61.8741 24.9596C61.7386 26.204 61.6038 26.6607 61.2797 27.9267C61.3435 26.353 61.4358 25.4802 61.7075 23.8516C61.1498 23.7383 60.4236 23.8308 60.1996 24.2361C60.0523 25.1658 59.9734 25.6812 59.9182 26.49C59.863 25.0231 59.8353 24.1745 59.7096 22.6508C59.0028 22.7075 58.3464 23.0357 58.2251 23.4744C58.2394 23.6741 58.2646 24.0171 58.2766 24.2159C57.7901 24.205 57.2641 24.4157 57.0733 24.5692C56.8567 25.6577 56.8511 26.3042 56.5522 27.4178C56.5522 27.4178 56.4313 26.5581 56.8458 22.9744C56.8706 22.7594 56.0761 22.2153 55.512 22.1398C55.3854 23.1831 55.2742 24.2248 55.1767 25.266C55.1211 24.0374 55.0266 22.8022 54.8909 21.5551C54.4618 21.479 53.5427 22.2478 53.5635 22.4602C53.8039 24.9193 53.8083 25.3089 53.8216 26.9549C53.6027 25.461 53.5117 24.91 53.3117 24.01C52.7484 24.0523 51.9445 24.6561 51.9859 24.8655C52.1852 25.8722 52.2241 26.3127 52.289 27.6303C52.0073 26.036 51.8058 25.5296 51.4446 23.9162C51.4227 23.818 50.4325 23.5183 49.8826 23.6655C50.1874 24.928 50.5275 26.1932 50.6609 27.4374C50.3479 26.6198 50.0569 25.7848 49.7927 24.9251C49.2454 25.0818 48.5493 26.1398 48.5805 26.2355C48.8445 27.046 49.1176 27.6525 49.4344 28.4277Z" fill="#FFBC0D"></path>
				<path fill-rule="evenodd" clip-rule="evenodd" d="M57.7767 34.7021C57.252 34.7021 56.7839 35.4048 56.4775 36.5036C56.1715 35.4048 55.7032 34.7021 55.1784 34.7021C54.2561 34.7021 53.508 37.0403 53.508 39.9244H54.2504C54.2504 37.2463 54.6661 35.0752 55.1784 35.0752C55.691 35.0752 56.1064 37.0795 56.1064 39.5515H56.8488C56.8488 37.0795 57.2642 35.0752 57.7767 35.0752C58.2892 35.0752 58.7047 37.2463 58.7047 39.9244H59.4469C59.4469 37.0403 58.6992 34.7021 57.7767 34.7021Z" fill="#FFBC0D"></path>
				<path fill-rule="evenodd" clip-rule="evenodd" d="M28.01 26.8047C28.01 26.8047 30.6848 27.023 33.3596 27.023C36.0344 27.023 38.7093 26.8047 38.7093 26.8047C38.7093 26.8047 38.4917 30.562 38.1634 34.3378C37.8351 38.1137 37.3992 41.871 37.3992 41.871C37.3992 41.871 35.3794 42.0894 33.3596 42.0894C31.3399 42.0894 29.3201 41.871 29.3201 41.871C29.3201 41.871 28.8826 38.0952 28.5559 34.3378C28.2292 30.5805 28.01 26.8047 28.01 26.8047Z" fill="white"></path>
				<mask id="mask1" mask-type="alpha" maskUnits="userSpaceOnUse" x="28" y="26" width="11" height="17">
				  <path fill-rule="evenodd" clip-rule="evenodd" d="M28.01 26.8047C28.01 26.8047 30.6848 27.023 33.3596 27.023C36.0344 27.023 38.7093 26.8047 38.7093 26.8047C38.7093 26.8047 38.4917 30.562 38.1634 34.3378C37.8351 38.1137 37.3992 41.871 37.3992 41.871C37.3992 41.871 35.3794 42.0894 33.3596 42.0894C31.3399 42.0894 29.3201 41.871 29.3201 41.871C29.3201 41.871 28.8826 38.0952 28.5559 34.3378C28.2292 30.5805 28.01 26.8047 28.01 26.8047Z" fill="white"></path>
				</mask>
				<g mask="url(#mask1)"></g>
				<path fill-rule="evenodd" clip-rule="evenodd" d="M30.3178 33.6198C29.8065 31.8195 29.0692 30.5603 28.2287 30.1913C28.2284 30.1888 28.2284 30.1888 28.3079 31.27C29.044 32.4415 29.5741 35.7327 29.5741 39.6094H31.0616C31.0616 34.7514 31.8941 30.8128 32.921 30.8128C33.9479 30.8128 34.7806 35.0793 34.7806 40.3422H36.2677C36.2677 34.6745 34.7695 30.0796 32.921 30.0796C31.8696 30.0796 30.9316 31.4605 30.3178 33.6198Z" fill="#FFBC0D"></path>
				<path fill-rule="evenodd" clip-rule="evenodd" d="M38.7093 26.8047C38.7093 26.8047 38.4917 30.562 38.1634 34.3378C37.8351 38.1137 37.3992 41.871 37.3992 41.871C37.3992 41.871 35.3794 42.0894 33.3596 42.0894C34.9517 42.0894 35.7523 37.0527 35.7614 26.9793C37.3992 26.9139 38.7093 26.8047 38.7093 26.8047Z" fill="#EAEAEA" style="mix-blend-mode: multiply"></path>
				<path d="M34.0802 15.4624L35.1613 15.6143L33.9108 24.5126L32.8085 24.5111L34.0802 15.4624Z" fill="#F1F1F1"></path>
				<path d="M34.6208 15.5386L34.9451 15.5842L33.6903 24.5125L33.3597 24.512L34.6208 15.5386Z" fill="#DB0007"></path>
				<path fill-rule="evenodd" clip-rule="evenodd" d="M28.1783 24.9487H38.541C38.7011 24.9487 38.8377 25.0645 38.8641 25.2224L39.0368 26.2588C37.1444 26.4044 35.252 26.4772 33.3596 26.4772C31.4672 26.4772 29.5749 26.4044 27.6825 26.2588L27.8552 25.2224C27.8815 25.0645 28.0182 24.9487 28.1783 24.9487Z" fill="#EAEAEA"></path>
				<path fill-rule="evenodd" clip-rule="evenodd" d="M30.3919 24.2345C31.3811 24.1283 32.3704 24.0752 33.3596 24.0752C34.3489 24.0752 35.3381 24.1283 36.3274 24.2345C36.5114 24.2543 36.663 24.388 36.7057 24.5681L36.7441 24.7303H29.9752L30.0136 24.5681C30.0562 24.388 30.2078 24.2543 30.3919 24.2345Z" fill="#EAEAEA"></path>
				<mask id="mask2" mask-type="alpha" maskUnits="userSpaceOnUse" x="28" y="26" width="11" height="17">
				  <path fill-rule="evenodd" clip-rule="evenodd" d="M28.01 26.8047C28.01 26.8047 30.6848 27.023 33.3596 27.023C36.0344 27.023 38.7093 26.8047 38.7093 26.8047C38.7093 26.8047 38.4917 30.562 38.1634 34.3378C37.8351 38.1137 37.3992 41.871 37.3992 41.871C37.3992 41.871 35.3794 42.0894 33.3596 42.0894C31.3399 42.0894 29.3201 41.871 29.3201 41.871C29.3201 41.871 28.8826 38.0952 28.5559 34.3378C28.2292 30.5805 28.01 26.8047 28.01 26.8047Z" fill="white"></path>
				</mask>
				<g mask="url(#mask2)">
				  <path d="M49.853 41.8801C50.0018 41.8801 50.1364 41.792 50.1959 41.6556L52.0127 37.4905C52.0836 37.4865 52.1536 37.4729 52.221 37.4501C52.6355 37.3102 52.858 36.8608 52.7181 36.4464L50.6014 30.1773C50.4927 29.8553 50.1908 29.6386 49.851 29.6386H38.5312C38.1914 29.6386 37.8895 29.8553 37.7808 30.1773L38.1352 30.2969L37.7808 30.1773L35.6641 36.4464C35.6366 36.528 35.6225 36.6136 35.6225 36.6997C35.6225 37.122 35.9529 37.467 36.3692 37.4905L38.1863 41.6556C38.2458 41.792 38.3804 41.8801 38.5292 41.8801H49.853Z" stroke="white" stroke-width="0.748175" stroke-linejoin="round"></path>
				</g>
				<path d="M49.853 41.506H38.5292L36.2502 36.2817H52.132L49.853 41.506Z" fill="#C2945C"></path>
				<path d="M52.0409 36.4907L51.2205 38.3715H37.162L36.3416 36.4907H52.0409Z" fill="#292929" fill-opacity="0.15"></path>
				<path d="M38.1167 30.3519C38.1851 30.1492 38.3753 30.0127 38.5892 30.0127H49.793C50.007 30.0127 50.1971 30.1492 50.2655 30.3519L52.3276 36.4593C52.4368 36.7827 52.1963 37.1177 51.8551 37.1177H36.5272C36.1859 37.1177 35.9454 36.7827 36.0546 36.4593L38.1167 30.3519Z" fill="#C2945C"></path>
				<path fill-rule="evenodd" clip-rule="evenodd" d="M48.6317 32.4005C49.0643 32.4005 49.4153 34.1384 49.4153 36.2815H50.0423C50.0423 33.9731 49.4107 32.1021 48.6317 32.1021C48.1887 32.1021 47.7933 32.6645 47.5347 33.5438C47.276 32.6645 46.8807 32.1021 46.4374 32.1021C45.6588 32.1021 45.027 33.9731 45.027 36.2815H45.654C45.654 34.1384 46.005 32.4005 46.4374 32.4005C46.8704 32.4005 47.2212 34.0046 47.2212 35.983H47.8481C47.8481 34.0046 48.1992 32.4005 48.6317 32.4005Z" fill="#FFBC0D"></path>
				<path d="M23.6922 41.3989H67.8346C68.11 41.3989 68.3333 41.6222 68.3333 41.8977C68.3333 42.9996 67.4401 43.8928 66.3382 43.8928H23.6922V41.3989Z" fill="#FFBC0D"></path>
				<path fill-rule="evenodd" clip-rule="evenodd" d="M66.5876 47.8504C66.5876 49.5032 65.2477 50.8431 63.5949 50.8431L28.9791 50.8431C26.8823 50.843 25.0093 49.5316 24.2921 47.5612L16.1796 25.2721C16.0361 24.8781 15.6615 24.6158 15.2422 24.6158L12.2202 24.6158C10.5674 24.6157 9.2275 23.2759 9.2275 21.623L9.2275 21.1243C9.2275 20.8488 9.45082 20.6255 9.72629 20.6255L15.2422 20.6255C17.339 20.6255 19.212 21.937 19.9292 23.9074L28.0417 46.1964C28.1852 46.5905 28.5598 46.8528 28.9791 46.8528L66.0888 46.8528C66.3643 46.8528 66.5876 47.0761 66.5876 47.3516L66.5876 47.8504Z" fill="#FFBC0D"></path>
				<circle cx="32.4209" cy="56.1133" r="5.9854" fill="#292929"></circle>
				<circle cx="32.347" cy="56.0392" r="2.51239" fill="#F1F1F1"></circle>
				<path d="M34.0503 54.1182C34.5478 54.5851 34.8594 55.2538 34.8594 55.9965C34.8594 57.4077 33.7344 58.5518 32.3466 58.5518C31.6163 58.5518 30.9588 58.235 30.4997 57.7292C30.8563 57.9113 31.2591 58.0138 31.6853 58.0138C33.1462 58.0138 34.3304 56.8096 34.3304 55.324C34.3304 54.8949 34.2316 54.4892 34.0558 54.1292L34.0503 54.1182Z" fill="white"></path>
				<path fill-rule="evenodd" clip-rule="evenodd" d="M39.4039 56.1133C39.4039 52.2568 36.2775 49.1304 32.4209 49.1304C28.5643 49.1304 25.438 52.2568 25.438 56.1133H26.4355C26.4355 52.8077 29.1153 50.1279 32.4209 50.1279C35.7266 50.1279 38.4063 52.8077 38.4063 56.1133H39.4039Z" fill="white"></path>
				<circle cx="58.8565" cy="56.1133" r="5.9854" fill="#292929"></circle>
				<circle cx="58.7826" cy="56.0392" r="2.51239" fill="#F1F1F1"></circle>
				<path d="M60.4858 54.1182C60.9833 54.5851 61.2949 55.2538 61.2949 55.9965C61.2949 57.4077 60.1699 58.5518 58.7821 58.5518C58.0518 58.5518 57.3943 58.235 56.9352 57.7292C57.2919 57.9113 57.6946 58.0138 58.1209 58.0138C59.5817 58.0138 60.7659 56.8096 60.7659 55.324C60.7659 54.8949 60.6671 54.4892 60.4913 54.1292L60.4858 54.1182Z" fill="white"></path>
				<path fill-rule="evenodd" clip-rule="evenodd" d="M65.8394 56.1133C65.8394 52.2568 62.713 49.1304 58.8564 49.1304C54.9999 49.1304 51.8735 52.2568 51.8735 56.1133H52.871C52.871 52.8077 55.5508 50.1279 58.8564 50.1279C62.1621 50.1279 64.8419 52.8077 64.8419 56.1133H65.8394Z" fill="white"></path>
				<path d="M4.48905 34.6655H12.4696" stroke="#292929" stroke-width="0.997567" stroke-linecap="round"></path>
				<path d="M4.23966 38.6558H16.2105" stroke="#292929" stroke-width="0.997567" stroke-linecap="round"></path>
				<path d="M8.72871 42.646H18.7044" stroke="#292929" stroke-width="0.997567" stroke-linecap="round"></path>
			  </svg>